<?xml version="1.0" encoding="UTF-8"?>
<svg width="744px" height="279px" viewBox="0 0 744 279" version="1.1" xmlns="http://www.w3.org/2000/svg" xmlns:xlink="http://www.w3.org/1999/xlink">
    <!-- Generator: Sketch 45.2 (43514) - http://www.bohemiancoding.com/sketch -->
    <title>logo</title>
    <desc>Created with Sketch.</desc>
    <defs></defs>
    <g id="Site-2" stroke="none" stroke-width="1" fill="none" fill-rule="evenodd">
        <g id="Desktop-HD" transform="translate(-426.000000, -329.000000)">
            <g id="logo" transform="translate(428.000000, 334.000000)">
                <g id="bobby_wide" transform="translate(462.507326, 66.127006)">
                    <path d="M8.49365269,5.50476823 C15.6324279,9.31695246 15.9746703,13.4353841 15.9746703,23.2054734 C15.9746703,32.9755626 10.2914322,149.363969 15.9746703,172.568721 C21.6579084,195.773472 47.503254,190.400675 51.3585147,177.36726 C55.2137754,164.333846 45.2404274,145.917238 39.8873526,136.787484 C34.5342778,127.65773 34.4316051,122.765725 39.2995009,116.805832 C44.1673966,110.845938 42.7239387,106.132909 39.8873526,100.163072 C37.0507665,94.1932357 37.7372647,89.2415723 41.6529211,82.1044157 C45.5685775,74.9672591 45.5323401,71.9803521 41.6529211,65.9985836 C37.7735021,60.0168152 36.4790203,53.327098 41.6529211,44.2172306 C46.8268219,35.1073631 43.2151573,36.4616132 39.2995009,29.165367 C35.3838444,21.8691209 40.4752044,11.3373902 45.5685775,7.98656579" id="Path" stroke="#000000" stroke-width="5.10299903" stroke-linecap="round"></path>
                    <ellipse id="Oval" fill="#000000" transform="translate(7.518816, 6.440564) rotate(-62.000000) translate(-7.518816, -6.440564) " cx="7.51881599" cy="6.44056378" rx="3.86532666" ry="6.36358348"></ellipse>
                    <ellipse id="Oval" fill="#000000" transform="translate(46.406222, 9.051352) rotate(-120.000000) translate(-46.406222, -9.051352) " cx="46.406222" cy="9.05135242" rx="3.86532666" ry="6.36358348"></ellipse>
                </g>
                <g id="shears" transform="translate(0.405353, 64.535319)">
                    <g id="shear_accent" transform="translate(107.161886, 98.902491) scale(1, -1) translate(-107.161886, -98.902491) translate(0.114760, 71.449313)">
                        <path d="M29.2278842,41.1827372 C41.5242675,41.1827372 47.4953118,31.3015396 47.4953118,23.1071631 C47.4953118,14.9127867 39.5411497,8.26993206 29.2278842,8.26993206 C18.9146187,8.26993206 11.9835629,13.6085666 10.9604566,23.1071631 C9.93735025,32.6057596 16.9315008,41.1827372 29.2278842,41.1827372 Z" id="Oval-2" stroke="#000000" stroke-width="4.85999916"></path>
                        <polyline id="Path-3" stroke="#000000" stroke-width="1.25" fill="#FFFFFF" points="75.9924988 7.19427246 90.8500066 0.364849944 213.820693 11.7599783 76.0401319 11.7599783"></polyline>
                        <path d="M28.6846489,5.8375991 L54.8466343,5.8375991 L76.3002884,5.8375991 L76.3002884,12.5572487 L65.0298753,12.5572487 C63.1136952,12.5572487 51.6096401,13.5641061 50.09173,21.6412559 C49.9449153,22.2711713 49.8430767,24.18981 49.8430767,24.18981 L43.1449873,12.2669701 L28.6846489,5.8375991 Z" id="Path-2" fill="#000000"></path>
                        <g id="accent" transform="translate(9.188759, 40.531050) scale(-1, 1) rotate(171.000000) translate(-9.188759, -40.531050) translate(2.133380, 27.411833)">
                            <path d="M9.80866179,20.187077 C1.3578804,16.2577029 -0.370095951,7.32497442 0.381221595,7.30153653e-14" id="Path-4" stroke="#000000" stroke-width="4.85999916" stroke-linecap="round"></path>
                            <path d="M4.89755908,24.6411112 C5.37158921,22.4778472 5.5933247,21.0253683 3.55141055,18.7516048 C1.50949641,16.4778414 5.36710359,14.1996659 6.73989323,15.0680198 C8.19716402,16.4778543 11.4093559,16.2976585 12.4704159,15.7737806 C13.5072376,15.5672207 13.808073,16.958043 13.808073,16.958043 L7.38301184,25.0422569 C7.38301184,25.0422569 6.28251654,26.9149087 4.89755908,24.6411112 Z" id="Path-5" fill="#000000"></path>
                        </g>
                    </g>
                    <g id="shear" transform="translate(109.702586, 104.112236) rotate(274.000000) translate(-109.702586, -104.112236) translate(7.034661, 83.461615)">
                        <path d="M19.3634733,41.1827372 C34.0886201,41.1827372 38.7269465,31.3015396 38.7269465,23.1071631 C38.7269465,14.9127867 35.865475,8.26993206 19.3634733,8.26993206 C2.86147156,8.26993206 -1.4864552e-13,14.9127867 -1.4864552e-13,23.1071631 C-1.4864552e-13,31.3015396 4.63832644,41.1827372 19.3634733,41.1827372 Z" id="Oval-2" stroke="#000000" stroke-width="4.85999916"></path>
                        <polyline id="Path-3" stroke="#000000" stroke-width="1.25" fill="#FFFFFF" points="67.2241336 6.95103916 82.0816414 0.121616648 205.052328 11.516745 67.2717666 11.516745"></polyline>
                        <path d="M19.9162837,5.8375991 L67.5319231,5.8375991 L67.5319231,12.5572487 L56.26151,12.5572487 C54.34533,12.5572487 42.8412748,13.5641061 41.3233648,21.6412559 C41.1765501,22.2711713 41.0747114,24.18981 41.0747114,24.18981 L35.4904542,10.9122841 L19.9162837,5.8375991 Z" id="Path-2" fill="#000000"></path>
                        <ellipse id="Oval-3" stroke="#000000" stroke-width="1.25" cx="85.6810768" cy="6.2334486" rx="3.28813697" ry="3.2836495"></ellipse>
                    </g>
                </g>
                <text id="iz" font-family="Apple-Chancery, Apple Chancery" font-size="136.079977" font-style="italic" font-weight="normal" fill="#000000">
                    <tspan x="173.415362" y="171.346902">iz</tspan>
                </text>
                <text id="ocks" font-family="Apple-Chancery, Apple Chancery" font-size="136.079977" font-style="italic" font-weight="normal" fill="#000000">
                    <tspan x="519.946965" y="171.346902">ocks</tspan>
                </text>
                <path d="M385.232254,156.630076 C360.495373,126.630864 339.951546,115.246821 320.435493,109.747696 C300.919439,104.24857 273.529503,85.4066533 266.159723,65.6059022 C258.789942,45.805151 288.568439,30.3222811 313.877782,35.4231145 C339.187125,40.5239479 349.502082,54.476149 357.535807,67.7208508 C359.832273,53.2749216 356.168898,40.569612 386.185209,14.8969468 C416.201521,-10.7757183 432.184537,4.37666548 437.586206,8.85180912 C448.189366,19.5018591 448.779524,43.695203 444.866159,52.8994127 C440.952794,62.1036224 422.471712,78.8428037 422.471712,78.8428037 C422.471712,78.8428037 392.758614,102.299166 385.232254,156.630076 Z" id="Path-7" stroke="#BD0712" stroke-width="9.71999833" stroke-linejoin="round"></path>
            </g>
        </g>
    </g>
</svg>