<?xml version="1.0" encoding="UTF-8"?>
<svg width="63px" height="63px" viewBox="0 0 63 63" version="1.1" xmlns="http://www.w3.org/2000/svg" xmlns:xlink="http://www.w3.org/1999/xlink">
    <!-- Generator: Sketch 45.2 (43514) - http://www.bohemiancoding.com/sketch -->
    <title>Group 11</title>
    <desc>Created with Sketch.</desc>
    <defs></defs>
    <g id="Site-2" stroke="none" stroke-width="1" fill="none" fill-rule="evenodd">
        <g id="Desktop-HD" transform="translate(-181.000000, -775.000000)" fill="#000000">
            <g id="Group-11" transform="translate(181.000000, 775.000000)">
                <path d="M2.50768841,9.25771608 C-0.835833782,13.2227319 -0.752254161,19.5771495 2.75842728,28.3209688 C5.40651977,34.3775746 10.693123,41.3085624 18.6182368,49.1139321 C25.2874453,55.0218101 30.9730397,58.9044697 35.6750199,60.7619107 C39.9638073,62.426533 43.984033,63.1448974 47.735697,62.9170039 C50.2901232,62.5870822 52.298463,61.8172775 53.7607161,60.6075898 C52.94988,59.7178032 47.9917166,54.7458614 38.886226,45.6917645 C35.9821405,46.568494 33.5015785,46.0857576 31.44454,44.2435554 C29.3875015,42.4013532 27.6343843,40.7482905 26.1851883,39.2843672 L22.9416918,36.1029303 L18.3716036,31.0609614 C16.8817205,29.182546 16.5503552,26.8829995 17.3775079,24.1623219 C16.7121227,23.4608776 11.7555162,18.4926757 2.50768841,9.25771608 Z" id="Path-17"></path>
                <path d="M5.37039893,6.36738677 L11.0025637,0.695481075 C12.0923075,-0.133118947 13.1494463,-0.10863672 14.17398,0.768927756 C15.2401146,1.85229477 19.0703495,5.71118717 25.6646848,12.345605 C26.2487662,13.29673 26.1807473,14.2120996 25.4606282,15.0917137 C23.4182412,17.0474072 21.5341731,18.9856019 19.8084239,20.9062979 L5.37039893,6.36738677 Z" id="Path-19"></path>
                <path d="M42.1620619,43.1484597 L47.8060692,37.6218532 C48.9839478,36.7701753 50.0470458,36.7828903 50.9953632,37.6599982 C51.9436806,38.537106 55.687943,42.2730185 62.2281506,48.8677357 C63.1060187,49.9068449 63.1628023,50.858729 62.3985013,51.7233882 C61.6342003,52.5880473 59.6998387,54.5685645 56.5954164,57.66494 L42.1620619,43.1484597 Z" id="Path-20"></path>
            </g>
        </g>
    </g>
</svg>