<?xml version="1.0" encoding="UTF-8"?>
<svg width="66px" height="121px" viewBox="0 0 66 121" version="1.1" xmlns="http://www.w3.org/2000/svg" xmlns:xlink="http://www.w3.org/1999/xlink">
    <g id="Site-2" stroke="none" stroke-width="1" fill="none" fill-rule="evenodd">
        <g id="Desktop-HD" transform="translate(-26.000000, -15.000000)">
            <g id="shears" transform="translate(25.000000, 10.000000)">
                <g id="shear_accent" transform="translate(36.954353, 63.375667) scale(1, -1) rotate(70.000000) translate(-36.954353, -63.375667) translate(-24.679889, 47.535712)">
                    <path d="M16.8284618,23.7616474 C23.908318,23.7616474 27.3462504,18.0603864 27.3462504,13.3323887 C27.3462504,8.60439112 22.7665035,4.77159176 16.8284618,4.77159176 C10.8904201,4.77159176 6.89974439,7.85188125 6.31067317,13.3323887 C5.72160194,18.8128962 9.74860557,23.7616474 16.8284618,23.7616474 Z" id="Oval-2" stroke="#000000" stroke-width="2.79999999"></path>
                    <polyline id="Path-3" stroke="#000000" stroke-width="0.699999999" fill="#CCCCCC" points="43.7540006 4.15095685 52.3084687 0.210511401 123.110976 6.78528131 43.7814262 6.78528131"></polyline>
                    <path d="M16.5156846,3.36818242 L31.578902,3.36818242 L43.9312158,3.36818242 L43.9312158,7.245291 L37.4420798,7.245291 C36.3388058,7.245291 29.7151463,7.82622838 28.8411833,12.4865885 C28.7566521,12.8500375 28.6980168,13.9570552 28.6980168,13.9570552 L24.8414756,7.07780585 L16.5156846,3.36818242 Z" id="Path-2" fill="#000000"></path>
                    <g id="accent" transform="translate(5.290588, 23.385637) scale(-1, 1) rotate(171.000000) translate(-5.290588, -23.385637) translate(1.228331, 15.816100)">
                        <path d="M5.64750732,11.6475552 C0.781823215,9.3803819 -0.213089169,4.22636937 0.219494952,5.68434189e-14" id="Path-4" stroke="#000000" stroke-width="2.79999999" stroke-linecap="round"></path>
                        <path d="M2.81985468,14.2174473 C3.09278575,12.9692856 3.22045381,12.1312332 2.04478629,10.8193154 C0.869118765,9.50739758 3.09020308,8.19293416 3.88061055,8.69395763 C4.71965951,9.50740507 6.56913478,9.40343552 7.18005848,9.10116805 C7.77702656,8.98198695 7.95023779,9.78446471 7.95023779,9.78446471 L4.25089725,14.4489006 C4.25089725,14.4489006 3.61726798,15.5293847 2.81985468,14.2174473 Z" id="Path-5" fill="#000000"></path>
                    </g>
                </g>
                <g id="shear" transform="translate(55.309977, 64.736828) rotate(274.000000) translate(-55.309977, -64.736828) translate(-4.190023, 52.736828)">
                    <path d="M11.1488559,23.7616474 C19.6271149,23.7616474 22.2977118,18.0603864 22.2977118,13.3323887 C22.2977118,8.60439112 20.6501699,4.77159176 11.1488559,4.77159176 C1.64754193,4.77159176 -1.59161573e-12,8.60439112 -1.59161573e-12,13.3323887 C-1.59161573e-12,18.0603864 2.67059698,23.7616474 11.1488559,23.7616474 Z" id="Oval-2" stroke="#000000" stroke-width="2.79999999"></path>
                    <polyline id="Path-3" stroke="#000000" stroke-width="0.699999999" fill="#CCCCCC" points="38.7054621 4.01061592 47.2599301 0.070170467 118.062438 6.64494037 38.7328876 6.64494037"></polyline>
                    <path d="M11.4671461,3.36818242 L38.8826772,3.36818242 L38.8826772,7.245291 L32.3935412,7.245291 C31.2902673,7.245291 24.6666078,7.82622838 23.7926447,12.4865885 C23.7081136,12.8500375 23.6494782,13.9570552 23.6494782,13.9570552 L20.4342452,6.29617809 L11.4671461,3.36818242 Z" id="Path-2" fill="#000000"></path>
                    <ellipse id="Oval-3" stroke="#000000" stroke-width="0.5" cx="49.3323676" cy="3.59657997" rx="1.89320195" ry="1.89460261"></ellipse>
                </g>
            </g>
        </g>
    </g>
</svg>